<svg xmlns="http://www.w3.org/2000/svg" xmlns:xlink="http://www.w3.org/1999/xlink" id="Capa_1" x="0px" y="0px" viewBox="0 0 103.5 238.7" style="enable-background:new 0 0 103.5 238.7;" xml:space="preserve"><style type="text/css">	.st0{fill:#FFFFFF;}	.st1{fill:none;stroke:#FFFFFF;stroke-width:0.5;stroke-miterlimit:10;}</style><g id="Capa_2_00000080897556381471432100000009730810668366687887_">	<g id="Layer_1">		<path class="st0" d="M2.4,141.6H5l7.8,19.4l7.8-19.4h2.5v22.3h-1.5v-21.3l-8.5,21.3h-0.7l-8.5-21.1v21.1H2.4V141.6z"></path>		<path class="st0" d="M37.6,141.6h1.8l9.2,22.3h-1.5l-2.6-6.1H32.4l-2.6,6.1h-1.5L37.6,141.6z M38.5,143.1L33,156.4h11L38.5,143.1z   "></path>		<path class="st0" d="M53.2,141.6h9c4,0,6.7,2.3,6.7,5.8c0,1.6-0.7,3.2-2,4.2c-0.8,0.7-1.8,1.2-2.8,1.4l5.5,10.9h-1.5l-5.5-10.7   h-7.9v10.7h-1.5V141.6z M54.7,142.9v9h6.9c3.5,0,5.9-1.8,5.9-4.5c0-2.5-2.2-4.5-5.2-4.5L54.7,142.9z"></path>		<path class="st0" d="M79,134.7h2.7l-4.8,4.6H76L79,134.7z M76,141.6h1.5v22.3h-1.6L76,141.6z"></path>		<path class="st0" d="M92.5,141.6h1.8l9.2,22.3H102l-2.6-6.1H87.3l-2.6,6.1h-1.5L92.5,141.6z M93.4,143.1l-5.5,13.3H99L93.4,143.1z   "></path>		<path class="st0" d="M1.7,178.7h13.5l-0.7,1.4H3.2v8.7h10v1.4h-10v9.4h11.7l0.5,1.4H1.7V178.7z"></path>		<path class="st0" d="M21.8,178.7h1.5v20.9H34v1.3H21.8V178.7z"></path>		<path class="st0" d="M39.2,178.7h13.5L52,180H40.7v8.7h10v1.4h-10v9.4h11.7l0.5,1.4H39.2V178.7z"></path>		<path class="st0" d="M59.1,178.7h2.2l13.3,20.3v-20.3h1.6v22.3h-1.9l-13.6-20.6v20.6h-1.5V178.7z"></path>		<path class="st0" d="M90.8,178.7h1.8l9.4,22.3h-1.5l-2.6-6.1H85.5l-2.6,6.1h-1.5L90.8,178.7z M91.7,180.2l-5.7,13.3h11.3   L91.7,180.2z"></path>		<path class="st0" d="M0,215.7h1.3l5.4,20l5.4-20h1.4l5.5,20l5.4-20h1.4l-6,22.3h-1.5l-5.4-20l-5.4,20H6L0,215.7z"></path>		<path class="st0" d="M34.7,215.7h1.7l8.7,22.3h-1.4l-2.4-6.1H29.9l-2.4,6.1H26L34.7,215.7z M35.6,217.2l-5.2,13.3h10.4L35.6,217.2   z"></path>		<path class="st0" d="M50,215.7h1.4v21h9.8v1.3H50V215.7z"></path>		<path class="st0" d="M66,232c0.6,1.7,2.1,5.3,6.8,5.3c3.5,0,5.9-2,5.9-5s-2.9-4.4-6.2-5.6c-2.8-1-6.5-2.4-6.5-6.2   c0-3.3,2.4-5.3,6.4-5.3s5.6,2.3,6.8,4l-1,1.5c-0.6-1.2-2.1-4.1-5.7-4.1c-3.1,0-5,1.6-5,4c0,1.9,1.3,3.1,5.6,4.7   c4,1.5,7.1,3.1,7.1,6.9s-3.1,6.6-7.5,6.6c-3.6,0-6.8-2.3-8-5.6L66,232z"></path>		<path class="st0" d="M85.8,215.7h1.4v10.1h12.8v-10.1h1.4V238h-1.4v-10.8H87.2V238h-1.4V215.7z"></path>		<path class="st0" d="M2.8,111.7h6.4l-0.1,0.7H3.6v4.6h4.8v0.7H3.6v5.7H2.8V111.7z"></path>		<path class="st0" d="M12.2,111.7H13v7.8c0,2.4,1.3,3.6,3.8,3.6c2.2,0,3.5-1.3,3.5-3.6v-7.8H21v7.8c0,2.9-1.5,4.4-4.4,4.4   c-2.2,0.2-4.2-1.4-4.4-3.6c0-0.3,0-0.5,0-0.8L12.2,111.7z"></path>		<path class="st0" d="M25,111.7h1.1l6.8,10.7v-10.7h0.8v11.8h-1l-7-10.9v10.9H25V111.7z"></path>		<path class="st0" d="M37.8,111.7h4c3.2,0,5.2,2.4,5.2,6.1c0.1,1.6-0.5,3.1-1.5,4.2c-1.1,1-2.6,1.5-4.2,1.4h-3.5V111.7z    M38.5,112.4v10.3h2.8c1.3,0.1,2.6-0.3,3.5-1.2c0.9-1,1.4-2.4,1.3-3.8c0.1-1.5-0.4-3-1.4-4.1c-0.9-0.9-2.1-1.3-3.4-1.2H38.5z"></path>		<path class="st0" d="M53.5,111.7h0.9l4.9,11.8h-0.8l-1.3-3.2h-6.4l-1.3,3.2h-0.8L53.5,111.7z M54,112.5l-2.9,7h5.8L54,112.5z"></path>		<path class="st0" d="M70.2,121.2c-0.8,1.6-2.5,2.7-4.3,2.7c-2.9,0-5.1-2-5.1-6.1c0-3.8,2-6.3,4.9-6.3c1.8-0.1,3.5,0.9,4.3,2.5   l-0.5,0.5c-0.7-1.4-2.1-2.3-3.7-2.3c-2.5,0-4.2,2.2-4.2,5.5s1.6,5.4,4.3,5.4c1.6,0.1,3.2-0.9,3.7-2.5L70.2,121.2z"></path>		<path class="st0" d="M73.4,111.7h0.8v11.8h-0.8V111.7z"></path>		<path class="st0" d="M77.4,117.6c0-3.6,2.1-6.2,5.2-6.2s5.2,2.6,5.2,6.3c0,3.6-2.2,6.1-5.2,6.1S77.4,121.2,77.4,117.6z M87,117.7   c0-3.4-1.7-5.6-4.4-5.6s-4.3,2.2-4.3,5.5s1.8,5.5,4.3,5.5C86.4,123.1,87,119.1,87,117.7L87,117.7z M83.4,108h1.4l-2.5,2.4h-0.5   L83.4,108z"></path>		<path class="st0" d="M91,111.7h1.1l6.8,10.7v-10.7h0.8v11.8h-1l-7-10.9v10.9H91V111.7z"></path>		<path class="st0" d="M58.7,87.3l-1.2,0.9l0,0c0.2-0.2,0.5-0.4,0.8-0.6c1.5-1.1,3-2.2,4.5-3.3c1.8-1.3,3.6-2.6,5.4-3.9   s3.8-2.6,5.6-3.9c2.7-1.8,5.3-3.7,7.9-5.5c2.5-1.8,5.1-3.6,7.6-5.4c2.4-1.6,4.8-3.3,7.2-5c1.9-1.3,3.8-2.6,5.7-3.8   c0.1-0.1,0.2-0.2,0.3-0.2c0.2,0,0.4,0.1,0.5,0.2c0.2,0.2,0.1,0.3,0,0.4c-1.7,1.2-3.4,2.3-5.1,3.5s-3.3,2.2-4.9,3.3l-8.6,5.8   c-0.8,0.6-1.6,1.1-2.4,1.7c-0.1,0.1-0.2,0.1-0.2,0.2l0,0c-0.1,0-0.2,0.1-0.3,0.1c-1.6,1-3.1,2-4.7,3.1c-2.3,1.6-4.7,3.1-7,4.7   c-0.4,0.3-0.8,0.6-1.2,0.9l0,0c-0.1,0-0.2,0.1-0.3,0.1L65,82.9c-0.5,0.4-1,0.7-1.5,1.1l0,0c-0.5,0.3-1,0.6-1.4,0.9   C61,85.6,60,86.4,59,87.1L58.7,87.3L58.7,87.3z"></path>		<path class="st0" d="M41.1,74.8c0.3-1.1,0.7-2.3,1.1-3.4c1-3.2,1.9-6.4,2.8-9.7c1.1-4,2.2-8.1,3.2-12.2c0.9-3.4,1.7-6.8,2.6-10.2   c0.8-3.2,1.7-6.4,2.5-9.6c0.5-1.8,1-3.6,1.5-5.4c0.1-0.2,0.1-0.6,0.5-0.6c0.2,0.4,0.4,0.9,0.3,1.2c-0.8,2.8-1.6,5.5-2.3,8.3   c-0.9,3.3-1.9,6.6-2.8,9.9c-0.7,2.6-1.4,5.2-2.1,7.8c-0.8,2.8-1.6,5.7-2.5,8.5c-0.5,1.9-1.1,3.8-1.7,5.7c-1,3-1.9,6.1-2.9,9.1   L41.1,74.8L41.1,74.8z"></path>		<path class="st0" d="M9.5,51.1c0.5-1.5,1-3,1.4-4.6c0.8-2.8,1.7-5.7,2.4-8.5c1.1-4,2.2-8.1,3.2-12.2c0.9-3.4,1.7-6.8,2.6-10.2   c0.8-3.2,1.7-6.4,2.5-9.6c0.5-1.8,1-3.6,1.5-5.4c0.1-0.2,0.1-0.6,0.5-0.6c0.2,0.3,0.4,0.8,0.4,1.2c-0.8,2.9-1.6,5.7-2.4,8.6   c-1,3.4-2,6.8-2.9,10.3c-0.7,2.5-1.3,5-2,7.4c-0.8,2.8-1.6,5.5-2.4,8.3c-0.6,1.9-1.1,3.8-1.7,5.8c-1,3.2-2,6.3-3,9.4   C9.6,51,9.6,51,9.5,51.1L9.5,51.1z"></path>		<path class="st0" d="M12.2,43.9L24.7,0.2h0.2c0.1,0.1,0.2,0.2,0.3,0.3c0.2,0.4,0.2,0.8,0.1,1.2c-0.6,2.1-1.3,4.1-2,6.2   c-0.4,1.4-0.9,2.8-1.3,4.2c-0.4,1.1-0.7,2.3-1,3.4c-0.5,1.7-1,3.3-1.5,5c-0.8,2.6-1.5,5.2-2.3,7.8c-0.7,2.3-1.4,4.6-2.1,6.8   c-0.5,1.7-1.1,3.5-1.6,5.2l-1.1,3.5L12.2,43.9z"></path>		<path class="st0" d="M56.4,23.9c0.1,0.1,0.2,0.2,0.2,0.3c0.2,0.4,0.3,0.8,0.1,1.2c-0.7,2.1-1.3,4.2-2,6.2   c-0.4,1.4-0.9,2.8-1.3,4.1c-0.3,1.1-0.7,2.3-1,3.4c-0.5,1.7-1,3.3-1.5,5c-0.8,2.6-1.5,5.2-2.3,7.8c-0.7,2.3-1.4,4.5-2.1,6.8   c-0.5,1.7-1,3.3-1.6,5c-0.4,1.2-0.8,2.5-1.2,3.7l0,0l12.5-43.6L56.4,23.9z"></path>		<path class="st0" d="M54.7,89.7c0.3-0.2,0.7-0.5,1-0.7c1.8-1.4,3.6-2.8,5.5-4.2c2.2-1.7,4.5-3.4,6.7-5c2.6-1.9,5.1-3.7,7.7-5.6   c2.5-1.8,5.1-3.6,7.7-5.4l7.2-5c2.2-1.5,4.3-3.1,6.5-4.6c1.6-1.1,3.2-2.2,4.8-3.3c0.1-0.1,0.2-0.1,0.3-0.1l0.1,0.1   c-0.1,0.1-0.2,0.2-0.3,0.3L96.3,60l-8.4,6l-6,4.2l-5.8,4.1l-5.5,3.8l-3.5,2.5L62.5,84c-1.5,1.1-2.9,2.1-4.3,3.2   c-0.8,0.6-1.6,1.3-2.4,1.9c-0.3,0.3-0.7,0.5-1,0.7L54.7,89.7z"></path>		<path class="st0" d="M67.2,28.3c0,0.1,0,0.2,0,0.3c-0.3,1-0.6,2-0.9,2.9c-0.3,0.9-0.7,1.9-1,2.8l-1.6,4.5c-0.5,1.5-1,2.9-1.5,4.4   s-1,2.8-1.5,4.3c-0.4,1.2-0.8,2.4-1.2,3.5c-0.5,1.6-1.1,3.2-1.6,4.8c-0.4,1.1-0.7,2.1-1.1,3.2c-0.5,1.4-1,2.7-1.4,4.1   c-0.6,1.6-1.1,3.1-1.7,4.6c-0.8,2-1.5,4-2.3,5.9c-0.5,1.3-1.1,2.5-1.6,3.8c-0.7,1.6-1.4,3.2-2.1,4.9s-1.4,3.3-2.2,4.9   c-0.1,0.2-0.2,0.4-0.3,0.7c0,0.1-0.1,0.1-0.1,0.2l-0.1-0.1c0.8-1.7,1.5-3.5,2.3-5.3l-0.1,0.1l1.7-3.9h-0.1l-0.1,0.1c0,0,0,0,0-0.1   c0.4-0.3,0.3-0.8,0.5-1.2c0.6-1.3,1.2-2.7,1.7-4c0.8-1.9,1.5-3.9,2.2-5.8c0.9-2.4,1.8-4.8,2.7-7.2c0.7-2,1.5-4.1,2.2-6.1   c0.3-1,0.7-2,1-3c0.5-1.4,0.9-2.8,1.4-4.1s0.9-2.6,1.3-3.9s1-2.8,1.5-4.2s1-3,1.5-4.4c0.6-1.7,1.2-3.3,1.8-5   c0.1-0.4,0.2-0.9,0.4-1.3c0.1-0.1,0.1-0.3,0.2-0.4L67.2,28.3z"></path>		<path class="st0" d="M35.7,4.5c0,0.1,0,0.2,0,0.3c-0.3,1-0.6,2-0.9,2.9s-0.7,1.9-1,2.9c-0.5,1.5-1,2.9-1.5,4.4s-1,2.9-1.5,4.4   l-1.4,4.2c-0.4,1.2-0.8,2.4-1.2,3.6c-0.5,1.6-1,3.2-1.6,4.9l-1.1,3.1c-0.5,1.4-1,2.8-1.5,4.1c-0.6,1.6-1.1,3.1-1.7,4.7   c-0.9,2.4-1.8,4.8-2.7,7.1c-0.3,0.8-0.8,1.6-1.1,2.5c-0.6,1.3-1.1,2.6-1.7,3.9c-0.4,1-0.9,2-1.3,3s-0.9,2-1.4,3.1   c-0.1,0.2-0.2,0.5-0.4,0.7l-0.1-0.1c0.8-1.7,1.5-3.5,2.3-5.3h-0.1l1.7-3.8l-0.1,0L17.3,55l0,0c0.1-0.2,0.4-0.3,0.4-0.6   c0-0.4,0.2-0.7,0.4-1.1c0.1-0.2,0.2-0.3,0.3-0.5c0.4-0.8,0.7-1.7,1-2.5s0.6-1.4,0.9-2.2s0.5-1.7,0.9-2.5c0.8-2.2,1.6-4.3,2.4-6.5   c0.7-1.8,1.3-3.6,1.9-5.4c0.4-1.2,0.9-2.4,1.2-3.6c0.3-0.9,0.6-1.8,0.9-2.7s0.6-1.8,0.9-2.7c0.4-1.2,0.8-2.3,1.2-3.5l1.5-4.3   l1.6-4.6c0.4-1.2,0.8-2.4,1.2-3.6c0.3-1,0.7-2,1.1-3c0.1-0.3,0.2-0.7,0.3-1c0.1-0.1,0.1-0.3,0.2-0.4L35.7,4.5z"></path>		<path class="st0" d="M47.5,87.4l2-1.9l2.2-2.2l1.8-1.8l3.2-3.2l2.9-2.8c0.7-0.7,1.5-1.5,2.2-2.2c0.9-0.9,1.8-1.8,2.8-2.6   c1.2-1.1,2.4-2.2,3.6-3.4s2.2-2.1,3.4-3.2c1.3-1.2,2.6-2.5,3.9-3.8c1.5-1.5,3.1-3,4.7-4.5l3.6-3.5l3.6-3.3c1-0.9,1.9-1.8,2.9-2.7   c0.4-0.3,0.7-0.5,1.1-0.8l0.1,0.1l-1,0.9l-3.8,3.5l-2.9,2.6c-1,1-2.1,2-3.1,2.9c-1.5,1.4-3.1,2.9-4.6,4.3   c-0.8,0.8-1.6,1.6-2.4,2.4c-1.2,1.1-2.3,2.2-3.5,3.3l-3.9,3.7c-1.1,1.1-2.3,2.1-3.4,3.2s-1.9,1.9-2.8,2.8l-3.2,3.1   c-1.1,1.1-2.2,2.2-3.4,3.3s-2.3,2.1-3.4,3.2c-0.7,0.6-1.3,1.3-1.9,1.9C48,87.1,47.8,87.3,47.5,87.4L47.5,87.4z"></path>		<path class="st0" d="M49.6,85.7c0.4-0.4,0.8-0.8,1.2-1.1l2.7-2.6c1.2-1.1,2.3-2.2,3.5-3.3s2.5-2.5,3.7-3.7c1.6-1.5,3.2-3,4.8-4.6   l4.8-4.6c1-0.9,2-1.8,3-2.8c1-1,2-1.9,2.9-2.9c1.2-1.2,2.4-2.3,3.6-3.4s2.3-2.1,3.4-3.2l3.3-3.1c1.2-1.1,2.4-2.3,3.6-3.4   c0.4-0.4,0.8-0.7,1.3-1.1c0.1-0.1,0.2-0.1,0.3-0.1c0,0,0.1,0.1,0.1,0.1c-0.2,0.2-0.3,0.3-0.5,0.5l-4.2,3.9   c-1.2,1.1-2.4,2.2-3.6,3.3c-1,0.9-2,1.8-2.9,2.8c-0.8,0.7-1.6,1.4-2.3,2.2c-0.5,0.5-1,1-1.5,1.5s-1,1-1.5,1.5   c-1.3,1.2-2.5,2.3-3.8,3.5s-2.5,2.4-3.8,3.5S65.2,70.9,64,72s-2.6,2.5-3.9,3.8c-1,1-1.9,1.9-2.9,2.9c-1.5,1.4-3,2.8-4.5,4.2   l-2.9,2.8L49.6,85.7L49.6,85.7z"></path>		<path class="st0" d="M42.3,73.4c0.1-0.4,0.2-0.8,0.3-1.1c0.8-2.6,1.7-5.2,2.5-7.8c0.9-2.9,1.9-5.8,2.8-8.7s1.7-5.7,2.5-8.6   s1.8-6,2.7-8.9c0.8-2.7,1.7-5.5,2.5-8.2c0.6-2,1.3-3.9,2-5.9c0-0.1,0.1-0.2,0.1-0.3h0.1c0,0.1,0,0.3,0,0.4   c-0.2,0.6-0.4,1.2-0.6,1.9l-1,3.1c-0.4,1.2-0.8,2.4-1.2,3.6c-0.8,2.4-1.6,4.8-2.3,7.3c-0.7,2.1-1.3,4.3-2,6.4   c-0.5,1.7-1,3.4-1.5,5.1c-0.7,2.3-1.4,4.6-2.1,6.9c-0.5,1.7-1.1,3.3-1.6,4.9s-1,3.1-1.5,4.6C43.5,69.9,42.8,71.6,42.3,73.4   L42.3,73.4z"></path>		<path class="st0" d="M57.1,77.5l2.3-2.3c1.2-1.2,2.5-2.5,3.8-3.7l2.9-2.9l4-3.9l3.6-3.5c1.2-1.1,2.3-2.3,3.5-3.4   c1.3-1.3,2.7-2.6,4-3.8l3.7-3.5c1.3-1.3,2.7-2.6,4.1-3.8c0.6-0.4,1.1-0.8,1.8-1.1C85,50.7,79.3,56,73.8,61.4S62.7,72.1,57.1,77.5   L57.1,77.5z"></path>		<path class="st0" d="M18.1,62c11.6-11.3,23.3-22.6,35.2-33.7l0.1,0.1c-0.1,0.2-0.2,0.3-0.4,0.5l-2.4,2.2l-2.9,2.7   c-0.4,0.3-0.8,0.7-1.1,1s-0.8,0.7-1.2,1.1s-0.8,0.8-1.2,1.1c-0.8,0.7-1.5,1.5-2.3,2.2s-1.8,1.7-2.7,2.5L36,44.9   c-1.2,1.1-2.4,2.2-3.5,3.3c-1.4,1.3-2.7,2.7-4.1,4l-3,2.9c-0.9,0.8-1.8,1.7-2.6,2.6l-3.5,3.2l-1.1,1C18.2,61.9,18.1,62,18.1,62z"></path>		<path class="st0" d="M54,25.9c-0.1,0.8-0.7,1.1-1.2,1.6c-0.9,0.9-1.9,1.8-2.8,2.7L48,32c-1.4,1.3-2.8,2.6-4.1,3.9   c-1.8,1.7-3.6,3.5-5.4,5.2L33.4,46l-4.2,4.2c-1.1,1.1-2.3,2.2-3.4,3.4c-0.1,0.1-0.2,0.2-0.3,0.2C34.9,44.3,44.4,35,54,25.9z"></path>		<path class="st0" d="M27.1,63.6l-1.2,0.9c7.1-5.5,14.6-10.6,22.1-15.9c0,0.5-0.3,0.9-0.7,1.1c-2.2,1.5-4.4,3-6.6,4.4l-3.8,2.6   c-0.1,0.1-0.2,0.1-0.2,0.2l0,0c-0.1,0-0.2,0.1-0.3,0.1c-1.1,0.7-2.1,1.5-3.2,2.2c-0.5,0.3-1,0.7-1.5,1.1l0,0   c-0.5,0.3-0.9,0.6-1.4,0.9c-1,0.7-2,1.4-3,2.2C27.3,63.4,27.2,63.5,27.1,63.6z"></path>		<path class="st0" d="M73.1,75.3l2.2-1.7l6.4-4.8l3.7-2.8c0.5-0.4,1.1-0.8,1.6-1.2l2.3-1.7c1.4-1,2.7-2,4.1-3.1l6.8-5.1   c0.2-0.1,0.5-0.2,0.8-0.3l-2.4,1.9c0,0.5-0.4,0.8-0.9,0.8c-0.5,0-0.8-0.4-0.8-0.9c0-0.5,0.4-0.8,0.9-0.8c0.4,0,0.8,0.4,0.8,0.8   c-0.1,0.1-0.3,0.3-0.4,0.4l-8.5,6.4l-7.2,5.4l-1.7,1.3l-5.2,3.9l-1.9,1.4c-0.1,0.1-0.2,0.1-0.3,0.2L73.1,75.3z"></path>		<path class="st0" d="M60.5,82c12.7-9.7,25.1-19.7,37.8-29.4l0.1,0.1c-0.1,0.1-0.1,0.3-0.2,0.4c-1.1,0.8-2.1,1.7-3.2,2.5   c-2.7,2.1-5.4,4.2-8.2,6.2c-3.2,2.4-6.3,4.9-9.5,7.3c-2.1,1.6-4.2,3.2-6.2,4.8s-3.8,3-5.8,4.5C63.8,79.7,62.2,80.9,60.5,82   L60.5,82z"></path>		<path class="st0" d="M28.4,57.5c0-0.1,0-0.2,0.1-0.3c0.5-0.4,1-0.8,1.6-1.3c0.9-0.8,1.8-1.6,2.7-2.4c0.9-0.8,2-1.7,3-2.6l5.4-4.5   l5.2-4.5c1.4-1.2,2.8-2.4,4.2-3.6h0.1h0.1c-0.1,0.2-0.2,0.3-0.3,0.5c-0.7,0.6-1.3,1.1-2,1.7c-1.2,1.1-2.5,2.2-3.7,3.2   c-0.5,0.5-1.1,0.9-1.7,1.4c-0.9,0.8-1.8,1.5-2.7,2.2c-0.3,0.3-0.7,0.6-1,0.8l-1,0.9l-1.1,0.9l-0.6,0.5l-2.6,2.2   c-0.1,0.1-0.2,0.1-0.3,0.1c-0.1,0.1-0.1,0.2-0.2,0.3c-0.5,0.5-1.1,1-1.7,1.4s-1.1,1-1.7,1.5c-0.4,0.3-0.7,0.5-1.1,0.8L28.4,57.5   L28.4,57.5z"></path>		<path class="st0" d="M57.2,81.8c12.2-11.3,24.7-22.3,37.4-33.1l0.1,0.1c-6.3,5.5-12.6,10.9-18.8,16.4S63.4,76.2,57.2,81.8z"></path>		<path class="st0" d="M30.2,56.9c1-0.8,1.9-1.7,2.9-2.5c2.3-2,4.6-3.9,6.9-5.8c2-1.7,4-3.3,5.9-5c1.5-1.2,2.9-2.5,4.3-3.7   c0.1,0,0.1-0.1,0.2-0.1c-0.1,0.7-0.6,1-1.1,1.5c-0.8,0.6-1.6,1.3-2.3,1.9l-5.7,4.7c-1.8,1.5-3.6,2.9-5.4,4.4s-3.5,2.9-5.2,4.3   C30.4,56.7,30.3,56.8,30.2,56.9L30.2,56.9z"></path>		<path class="st0" d="M36.7,56.9c0.5-0.3,1-0.6,1.5-1l5.1-3.4l4.3-2.9l0.1-0.1l0.1,0.1c-0.1,0.2-0.2,0.3-0.4,0.4   c-0.9,0.6-1.9,1.2-2.8,1.8c-0.8,0.5-1.5,1.1-2.2,1.6c-0.9,0.6-1.8,1.2-2.8,1.9c-1.8,1.2-3.6,2.4-5.3,3.6c-0.6,0.4-1.3,0.8-2,1.2   c-0.9,0.6-1.8,1.2-2.6,1.8c-0.1,0-0.2,0-0.2,0l1.7-1.2c0.2-0.1,0.4-0.3,0.6-0.5l0,0c0.1,0,0.1,0,0.2-0.1l3.7-2.5L36.7,56.9   L36.7,56.9z"></path>		<path class="st0" d="M64.6,38.1c0.1-0.7,0.4-1.3,1-1.7c1.4-0.8,2.7-1.8,4-2.7c0,0,0.1-0.1,0.2-0.1c0.2,0,0.3,0.1,0.5,0.2   c0.2,0.2,0.2,0.3,0,0.4l-4,2.7L64.6,38.1z"></path>		<path class="st0" d="M58.4,24.1l-9,28.2c2.7-9.5,5.7-19,8.9-28.3L58.4,24.1z"></path>		<path class="st0" d="M17.9,28.6c2.7-9.6,5.7-19,8.8-28.3h0.1c0,0.1,0,0.2,0,0.3c-0.6,1.7-1.1,3.5-1.7,5.2   c-0.7,2.2-1.4,4.3-2.1,6.4c-0.6,1.8-1.1,3.5-1.7,5.3c-1,3.1-1.9,6.2-2.9,9.2L18,28.4C18,28.5,17.9,28.5,17.9,28.6z"></path>		<path class="st0" d="M52,69.4c3.8-10.6,7.5-21.2,11.3-31.8l0.1,0c0,0.2-0.1,0.3-0.1,0.5c-0.4,1-0.8,2-1.1,3.1   c-0.1,0.3-0.2,0.7-0.4,1c-0.4,1.1-0.8,2.2-1.2,3.3c-0.6,1.6-1.1,3.2-1.7,4.8l-2,5.5c-0.7,2-1.4,3.9-2.1,5.9   c-0.1,0.4-0.2,0.8-0.3,1.2S54.2,63.6,54,64c-0.5,1.2-1,2.5-1.4,3.8c-0.2,0.5-0.3,0.9-0.5,1.4C52.1,69.2,52,69.3,52,69.4z"></path>		<path class="st0" d="M52.7,46.8c2.1-7.5,4.5-14.8,7.1-22c0,0.2,0,0.4-0.1,0.6c-0.3,0.9-0.6,1.8-0.9,2.7c-0.4,1.3-0.9,2.5-1.3,3.8   c-0.4,1.3-0.8,2.4-1.2,3.6c-0.3,1-0.6,1.9-0.9,2.9l-1.6,5c-0.3,1-0.7,2.1-1,3.2C52.8,46.6,52.8,46.7,52.7,46.8z"></path>		<path class="st0" d="M30.3,2.8c0,0.1,0,0.2,0,0.3l0.2-0.3h0C28.7,8,26.9,13.2,25,18.4C25,18.1,29.9,3.4,30.3,2.8z"></path>		<path class="st0" d="M61.3,25.5c0,0.3-6.9,21.2-7.2,21.7H54L61.3,25.5L61.3,25.5z"></path>		<path class="st0" d="M51.8,48.9c0-0.1,0-0.2,0-0.3c0.9-2.9,1.7-5.8,2.6-8.6s1.8-5.5,2.7-8.3l2.3-7c0-0.1,0.1-0.2,0.2-0.2   c0,0.1,0,0.2-0.1,0.3l-1.3,4.1c-0.5,1.6-1,3.1-1.5,4.7c-0.7,2-1.3,4.1-1.9,6.1c-0.5,1.6-1,3.1-1.5,4.7c-0.4,1.3-0.8,2.7-1.2,4.1   C51.9,48.6,51.8,48.8,51.8,48.9L51.8,48.9z"></path>		<path class="st0" d="M20.2,25.2c0-0.1,0-0.2,0-0.3c0.9-2.9,1.7-5.8,2.6-8.6s1.8-5.5,2.7-8.2c0.8-2.3,1.5-4.7,2.3-7   c0-0.1,0.1-0.2,0.2-0.2c0,0.1,0,0.2-0.1,0.3l-1.4,4.1c-0.5,1.6-1,3.2-1.5,4.7c-0.6,2-1.3,4.1-1.9,6.1c-0.5,1.6-1,3.1-1.5,4.7   c-0.4,1.4-0.8,2.7-1.2,4.1C20.3,24.9,20.2,25,20.2,25.2L20.2,25.2z"></path>		<path class="st0" d="M61.2,82.8c12.6-9.7,25-19.6,38.1-28.8L61.2,82.8z"></path>		<path class="st0" d="M55.3,46.7c0.2-0.6,0.4-1.2,0.6-1.8c0.8-2.2,1.5-4.5,2.3-6.7c1.1-3.2,2.2-6.4,3.3-9.6   c0.2-0.7,0.5-1.5,0.8-2.2c0-0.1,0.1-0.1,0.2-0.1c-0.1,0.4-0.2,0.8-0.4,1.2c-0.3,1-0.7,1.9-1,2.9l-1.8,5.1l-1.8,5.2   c-0.6,1.8-1.2,3.5-1.8,5.2c-0.1,0.2-0.2,0.5-0.2,0.7C55.5,46.6,55.4,46.7,55.3,46.7L55.3,46.7z"></path>		<path class="st0" d="M72.1,33.7l-7.7,5.2l-0.1-0.1c0.1-0.2,0.2-0.3,0.3-0.5c1.8-1.2,3.6-2.4,5.4-3.6c0.5-0.3,1.1-0.7,1.6-1   C71.8,33.6,71.9,33.6,72.1,33.7C72.1,33.6,72.1,33.6,72.1,33.7z"></path>		<path class="st0" d="M34.3,55.2l15.1-11.7l0.1,0.1c-0.1,0.1-0.2,0.3-0.3,0.4c-1,0.8-2.1,1.6-3.1,2.4l-3.2,2.4L37.3,53l-3,2.3   L34.3,55.2z"></path>		<path class="st0" d="M65.1,34.9c0.1-0.2,0.3-0.4,0.5-0.6c1.4-1,2.8-1.9,4.3-2.9c0.1-0.1,0.2-0.1,0.3-0.1l0.1,0.1   c-0.1,0.1-0.2,0.2-0.3,0.3c-1.3,0.9-2.5,1.8-3.8,2.7l-1,0.7L65.1,34.9z"></path>		<path class="st0" d="M57.8,37.4c0-0.2,0.1-0.3,0.1-0.5c0.6-1.9,1.3-3.8,1.9-5.7c0.6-1.8,1.2-3.5,1.8-5.2c0-0.1,0.1-0.1,0.1-0.2   c0.3,0.4,0,0.5,0,0.7c-0.3,0.8-0.6,1.7-0.9,2.5s-0.5,1.5-0.8,2.2c-0.4,1.1-0.8,2.3-1.2,3.4c-0.3,0.9-0.6,1.7-0.9,2.6   C57.9,37.3,57.8,37.4,57.8,37.4L57.8,37.4z"></path>		<path class="st0" d="M49.6,42.9l-11.3,8.8l-0.1-0.1l11.3-8.8L49.6,42.9z"></path>		<path class="st0" d="M49,45.5c-2.3,1.9-4.9,3.6-7.3,5.5l-0.1-0.1l7.3-5.5L49,45.5z"></path>		<path class="st0" d="M64.2,27.1c-1.6,4.5-3.3,8.9-4.9,13.4l-0.1-0.1L64.1,27L64.2,27.1z"></path>		<path class="st0" d="M51,75.5c0.1-0.2,0.1-0.5,0.2-0.7c0.6-1.5,1.2-3,1.8-4.6c1-2.8,2.1-5.6,3.1-8.4c0.2-0.6,0.4-1.2,0.7-1.8   L56,62.3l-2,5.3c-0.5,1.3-1,2.7-1.5,4S51.5,74.2,51,75.5L51,75.5z"></path>		<path class="st0" d="M33.8,56.9c0.4-0.3,0.8-0.7,1.3-1l6.2-4.7c0.1,0,0.2-0.1,0.2-0.1l0.1,0.1c-0.4,0.3-0.8,0.6-1.2,1   c-1.7,1.3-3.4,2.5-5.1,3.8c-0.4,0.3-0.8,0.6-1.1,0.9C34,56.9,33.9,57,33.8,56.9L33.8,56.9z"></path>		<path class="st0" d="M61.2,41c0-0.2,0-0.4,0.1-0.5c0.6-1.6,1.2-3.2,1.8-4.8s1.1-3,1.7-4.5c0.2-0.7,0.5-1.4,0.9-2.1   C64.1,33,62.7,37,61.2,41L61.2,41z"></path>		<path class="st0" d="M29.9,58.2l8-6.4l0.1,0.1L29.9,58.2L29.9,58.2z"></path>		<path class="st0" d="M53.9,69.3c-1.4,3.8-2.9,7.5-4.7,11.2C50.7,76.9,52.4,72.8,53.9,69.3z"></path>		<path class="st0" d="M65.2,36.2l5.6-3.9l0.1,0.1c-1.8,1.4-3.7,2.6-5.6,3.9L65.2,36.2z"></path>		<path class="st0" d="M57.8,37.4c-0.1,0.3-0.2,0.7-0.3,1c-0.6,1.8-1.2,3.6-1.8,5.4c-0.4,1.2-0.8,2.3-1.2,3.5c0,0.1-0.1,0.1-0.2,0.1   l0.7-2.2l1.9-5.8c0.2-0.6,0.4-1.3,0.6-1.9C57.7,37.5,57.7,37.4,57.8,37.4z"></path>		<path class="st0" d="M61.2,41c-0.8,2.3-1.6,4.6-2.5,6.9c-0.5,1.5-1.1,3.1-1.7,4.6c0,0.1,0,0.2-0.1,0.3l0,0c0-0.2,0-0.4,0-0.7   c1-2.8,2-5.6,3-8.4c0.3-0.8,0.6-1.7,0.9-2.5C61,41.1,61.1,41.1,61.2,41L61.2,41z"></path>		<path class="st0" d="M59.1,21.7l-2.2,2l-0.1-0.1c0-0.1-0.1-0.4,0-0.4c0.7-0.6,1.5-1.1,2.2-1.6C59,21.6,59.1,21.7,59.1,21.7z"></path>		<path class="st0" d="M63.5,24.4c-0.4,0.3-0.7,0.7-1.1,1c-0.1,0.1-0.4,0-0.6,0c0,0-0.1-0.2-0.1-0.3c0.2-0.2,0.4-0.3,0.6-0.5   c0.1,0,0.1,0,0.2,0c0.5,0.3,0.6,0,0.8-0.2L63.5,24.4L63.5,24.4z"></path>		<path class="st0" d="M69.4,30.3l-2.4,1.9c0-0.1,0-0.2,0-0.2l-0.2,0.1L66.6,32c0.8-0.7,1.8-1.3,2.7-1.8L69.4,30.3z"></path>		<path class="st0" d="M57.8,23.6c0-0.1,0-0.3,0.1-0.4c0.5-0.6,1.2-1,1.9-1.2L58,23.7L57.8,23.6z"></path>		<path class="st0" d="M52.6,64.8l2.4-6.6h0.1C54.3,60.4,53.5,62.6,52.6,64.8L52.6,64.8z"></path>		<path class="st0" d="M22.8,58.8l-3.9,3.5l-0.1-0.1l3.9-3.5L22.8,58.8z"></path>		<path class="st0" d="M60.3,24.5c0.3-0.5,0.8-0.8,1.3-0.7c0,0.1-0.1,0.1-0.1,0.2c-0.2,0.2-0.4,0.4-0.6,0.6   C60.8,24.8,60.5,24.6,60.3,24.5z"></path>		<path class="st0" d="M58.3,23.7l1.8-1.6l0.1,0.1c-0.1,0.1-0.2,0.2-0.3,0.3c-0.4,0.4-0.9,0.8-1.3,1.2c0,0-0.2,0-0.3,0.1L58.3,23.7z   "></path>		<path class="st0" d="M28,60.5l3.6-2.8l0.1,0.1L28,60.5C28,60.6,28,60.5,28,60.5z"></path>		<path class="st0" d="M59.1,23.8l1.6-1.4c0,0,0.1,0.1,0.1,0.1c0,0.1-0.1,0.1-0.1,0.2c-0.4,0.4-0.8,0.8-1.2,1.1   c-0.1,0.1-0.2,0-0.3,0.1S59.1,23.9,59.1,23.8z"></path>		<path class="st0" d="M64.6,34.3l-0.4,1.3c-0.2,0.6-0.4,1.2-0.6,1.8c0,0,0,0-0.2,0c0-0.1,0-0.2,0.1-0.3c0.3-0.9,0.6-1.7,0.9-2.6   C64.4,34.4,64.5,34.3,64.6,34.3L64.6,34.3z"></path>		<path class="st0" d="M62.2,24.1c-0.2,0.5-0.7,0.7-1,1l-0.3-0.2l1.2-0.9L62.2,24.1z"></path>		<path class="st0" d="M69.1,29.8l-2.2,1.6l-0.1-0.1c0.7-0.5,1.5-1.1,2.2-1.6C69,29.7,69,29.7,69.1,29.8z"></path>		<path class="st0" d="M61.4,23l-1.5,1.4l-0.2-0.1l1.6-1.4L61.4,23z"></path>		<path class="st0" d="M52.6,51.9c0.4-1.2,0.8-2.4,1.2-3.6l0.1,0C53.4,49.5,53,50.8,52.6,51.9L52.6,51.9z"></path>		<path class="st0" d="M53.8,86.7c0.2-0.4,0.4-0.8,0.6-1.3c0.2,0.2,0.4,0.4,0.2,0.6C54.3,86.3,54,86.5,53.8,86.7L53.8,86.7z"></path>		<path class="st0" d="M14.2,64.3l0.6-1.3c0.2,0.3,0.3,0.4,0.1,0.6C14.7,63.8,14.5,64.1,14.2,64.3L14.2,64.3z"></path>		<path class="st0" d="M49.6,75.4l-1.3,3.1l-0.1-0.1L49.6,75.4L49.6,75.4z"></path>		<path class="st0" d="M57,52.8c-0.3,0.8-0.6,1.6-0.9,2.4c-0.1,0.2-0.2,0.4-0.3,0.6c0.1-0.4,0.3-0.8,0.4-1.3s0.4-1,0.5-1.5   C56.8,53,56.9,52.9,57,52.8L57,52.8z"></path>		<path class="st0" d="M64.6,34.3c0-0.2,0-0.4,0.1-0.6c0.2-0.6,0.4-1.1,0.6-1.7c0,0,0-0.1,0.2-0.1c-0.2,0.5-0.3,1-0.5,1.5   C64.8,33.7,64.7,34,64.6,34.3L64.6,34.3z"></path>		<path class="st0" d="M86,58.7c0-0.1,0-0.2,0-0.2l1.2-1.1c0,0,0.1,0,0.2,0.1L86,58.7z"></path>		<path class="st0" d="M50.3,53.2l0.9-2.8l0.1,0C51,51.4,50.7,52.3,50.3,53.2L50.3,53.2z"></path>		<path class="st0" d="M19.8,26.7c-0.3,0.9-0.6,1.9-0.9,2.8h-0.1L19.8,26.7L19.8,26.7z"></path>		<path class="st0" d="M66.4,29.2l-0.7,2.1l-0.1,0L66.4,29.2L66.4,29.2z"></path>		<path class="st0" d="M66.8,30.8l1.7-1.3l0.1,0.1L66.8,30.8L66.8,30.8z"></path>		<path class="st0" d="M59.4,24c0.6-0.5,1.1-1,1.7-1.5l0.1,0.1L59.4,24L59.4,24z"></path>		<path class="st0" d="M30.2,56.9c-0.4,0.3-0.7,0.7-1,1s-0.4,0.4-0.6,0.5l-0.1-0.1L30.2,56.9L30.2,56.9z"></path>		<path class="st0" d="M64.3,26.7l0.8-0.6c0.1,0.1,0.1,0.2,0.1,0.3C65,26.6,64.7,26.7,64.3,26.7z"></path>		<path class="st0" d="M52.1,51.7c-0.2,0.8-0.5,1.5-0.7,2.3l-0.1,0c0.2-0.6,0.3-1.1,0.5-1.7C51.9,52.1,52,51.9,52.1,51.7L52.1,51.7z   "></path>		<path class="st0" d="M9.9,51.9c0.1-0.3,0.1-0.5,0.2-0.8c0.1-0.4,0.3-0.9,0.5-1.3c0-0.1,0.1-0.1,0.1-0.2l0,0   C10.4,50.4,10.2,51.2,9.9,51.9z"></path>		<path class="st0" d="M42.3,73.4c-0.3,0.8-0.5,1.6-0.8,2.3l0,0c0.1-0.3,0.1-0.5,0.2-0.8c0.1-0.4,0.3-0.9,0.5-1.3   C42.1,73.5,42.2,73.4,42.3,73.4z"></path>		<path class="st0" d="M67.1,30c0.1-0.2,0.1-0.4,0.2-0.5c0,0,0.2,0,0.2,0s0.1,0.2,0,0.2C67.5,29.8,67.3,29.9,67.1,30L67.1,30z"></path>		<path class="st0" d="M63.7,25l-1,0.8l-0.1-0.1L63.7,25L63.7,25z"></path>		<path class="st0" d="M84.5,59.9l-0.3,0.1l0,0l1.1-1l0,0l-0.5,0.6L84.5,59.9z"></path>		<path class="st0" d="M50.5,73c0.2-0.5,0.3-0.9,0.5-1.4l0.1,0.1L50.5,73L50.5,73z"></path>		<path class="st0" d="M64.6,25.9c-0.2,0.4-0.4,0.5-0.7,0.4L64.6,25.9C64.5,25.9,64.5,25.9,64.6,25.9z"></path>		<path class="st0" d="M45.6,79l0.6-1.7l0.1,0.1L45.6,79L45.6,79z"></path>		<path class="st0" d="M42.8,44.9c0-0.1,0-0.2,0-0.2c0.3-0.3,0.6-0.6,1-0.8L43,44.6L42.8,44.9z"></path>		<path class="st0" d="M74.3,68.7c0-0.1,0-0.2,0-0.2c0.3-0.3,0.7-0.6,1-0.8c-0.2,0.2-0.5,0.5-0.7,0.8L74.3,68.7z"></path>		<path class="st0" d="M51,75.5l-0.8,1.9h-0.1c0.2-0.6,0.5-1.1,0.7-1.7C50.9,75.6,50.9,75.6,51,75.5L51,75.5z"></path>		<path class="st0" d="M52,66.6c0.2-0.5,0.4-1,0.5-1.5h0.1L52,66.6L52,66.6z"></path>		<path class="st0" d="M90.4,51.1l-0.3,0.1l0,0c0.2-0.2,0.5-0.4,0.8-0.6c0,0,0.1,0,0.1,0.1L90.4,51.1z"></path>		<path class="st0" d="M31.8,58.6l-0.9,0.7l-0.1-0.1L31.8,58.6L31.8,58.6z"></path>		<path class="st0" d="M63.8,25.8c-0.1,0.4-0.2,0.5-0.6,0.1L63.8,25.8z"></path>		<path class="st0" d="M33.8,56.9l-0.8,0.8l-0.1-0.1L33.8,56.9L33.8,56.9z"></path>		<path class="st0" d="M32.7,57.8l-0.8,0.6l-0.1-0.1L32.7,57.8L32.7,57.8z"></path>		<path class="st0" d="M55.7,56.3c-0.1,0.4-0.2,0.7-0.4,1.1h0C55.4,57.1,55.5,56.7,55.7,56.3L55.7,56.3z"></path>		<path class="st0" d="M57.4,23.7l-0.3,0.6C56.9,24.1,56.9,24.1,57.4,23.7z"></path>		<path class="st0" d="M20.2,25.2l-0.3,1.1l-0.1-0.1C19.9,25.8,20.1,25.5,20.2,25.2L20.2,25.2z"></path>		<path class="st0" d="M51.7,48.9c-0.1,0.4-0.2,0.7-0.3,1.1l-0.1-0.1C51.5,49.6,51.6,49.3,51.7,48.9L51.7,48.9z"></path>		<path class="st0" d="M28.7,59.3l-0.8,0.6l-0.1-0.1L28.7,59.3L28.7,59.3z"></path>		<path class="st0" d="M18.4,30.8c0.1-0.4,0.2-0.8,0.3-1.1l0.1,0C18.7,30.1,18.6,30.5,18.4,30.8L18.4,30.8z"></path>		<path class="st0" d="M50,54.6c0.1-0.4,0.2-0.8,0.3-1.1l0.1,0.1C50.2,53.9,50.1,54.2,50,54.6L50,54.6z"></path>		<path class="st0" d="M18.4,30.8c-0.1,0.4-0.2,0.7-0.3,1.1H18L18.4,30.8L18.4,30.8z"></path>		<path class="st0" d="M50,54.6c-0.1,0.4-0.2,0.7-0.3,1.1h-0.1L50,54.6L50,54.6z"></path>		<path class="st0" d="M41.4,75.7l-0.3,1L41,76.6L41.4,75.7L41.4,75.7z"></path>		<path class="st0" d="M9.9,51.9l-0.3,1l-0.1-0.1L9.9,51.9L9.9,51.9z"></path>		<path class="st0" d="M81,72.1c-0.5,0.3-0.9,0.7-1.4,1c-1.2,0.8-2.5,1.6-3.7,2.4c-2.1,1.4-4.2,2.8-6.2,4.2c-0.5,0.3-1,0.6-1.4,0.9   c0.4-0.3,0.8-0.6,1.2-0.8c2.3-1.5,4.5-3.1,6.8-4.6c1.5-1,3-2,4.5-3C80.8,72.2,80.9,72.2,81,72.1z"></path>		<path class="st0" d="M55.6,81c11.8-11.7,24-23.1,36.3-34.3l0.1,0.1c-6.1,5.6-12.3,11.3-18.3,16.9S61.6,75.2,55.6,81z"></path>		<path class="st0" d="M53.5,83.5c13-12.2,26.2-24.2,39.7-36l0.1,0.1c-6.7,5.9-13.4,11.8-20,17.8S60.1,77.5,53.5,83.5z"></path>		<path class="st0" d="M57.2,81.9c12-11.5,24.3-22.7,36.8-33.7c0,0,0.1,0.1,0.1,0.1C87.9,53.8,81.7,59.4,75.6,65   S63.3,76.2,57.2,81.9z"></path>		<path class="st0" d="M57.9,82.7c12.5-11,25.2-21.7,38.2-32.2l0.1,0.1c-6.4,5.3-12.9,10.6-19.2,15.9S64.2,77.3,57.9,82.7z"></path>		<path class="st0" d="M57.3,82c12.4-11.1,25-21.9,37.9-32.5l0.1,0.1C89,55,82.6,60.3,76.2,65.7S63.6,76.6,57.3,82z"></path>		<path class="st0" d="M58.7,83.6c12.5-11,25.2-21.7,38.2-32.1c0,0,0.1,0.1,0.1,0.1C90.5,56.9,84,62.2,77.7,67.5S65,78.3,58.7,83.6z   "></path>		<path class="st0" d="M55.5,27.1c-0.1,0.8-0.7,1.1-1.2,1.6c-0.9,0.9-1.9,1.8-2.8,2.7l-2,1.8c-1.4,1.3-2.8,2.6-4.1,3.9L40,42.3   l-5.1,4.9c-1.4,1.4-2.8,2.8-4.2,4.1c-1.1,1.1-2.3,2.2-3.4,3.4c-0.1,0.1-0.2,0.1-0.3,0.2C36.3,45.5,45.8,36.2,55.5,27.1z"></path>		<path class="st0" d="M51,35.1L28.9,55l-0.1-0.1l11.1-10C43.5,41.6,47.2,38.3,51,35.1C51,35,51,35,51,35.1z"></path>		<path class="st0" d="M52.7,31.8L27.8,55.2l-0.1-0.1c4.1-3.9,8.3-7.8,12.4-11.7C44.2,39.5,48.4,35.6,52.7,31.8L52.7,31.8z"></path>		<path class="st0" d="M52,35.7L29.8,55.6l-0.1-0.1l11.1-10c3.7-3.3,7.4-6.6,11.1-9.9L52,35.7z"></path>		<path class="st0" d="M48,74.8c7.5-22.6,11-32,16.7-47"></path>		<path class="st0" d="M45.6,76.8c5.5-17,11.4-33.8,17.6-50.6h0.1c-3,8.4-6,16.8-9,25.2S48.5,68.3,45.6,76.8z"></path>		<path class="st0" d="M44.8,76.3c4.9-17.1,10.3-34.2,15.9-51.2h0.1c-2.7,8.5-5.5,17-8.2,25.5S47.4,67.7,44.8,76.3z"></path>		<path class="st0" d="M52.7,31.8L27.8,55.2l-0.1-0.1c4.1-3.9,8.3-7.8,12.4-11.7C44.2,39.5,48.4,35.6,52.7,31.8L52.7,31.8z"></path>		<path class="st0" d="M29.3,1.4c0.1,0.3-5.6,17.7-5.8,17.9c0,0-0.1,0-0.1,0C25.4,13.4,27.4,7.4,29.3,1.4z"></path>		<line class="st0" x1="23.5" y1="19.3" x2="11.5" y2="55"></line>		<path class="st0" d="M30.4,2.3c0.1,0.3-5.6,17.7-5.8,17.9l-0.1,0C26.5,14.3,28.4,8.3,30.4,2.3z"></path>		<line class="st0" x1="24.5" y1="20.2" x2="12.6" y2="55.9"></line>		<path class="st0" d="M33.3,4.1c0.1,0.3-6.2,17.5-6.4,17.7l-0.1,0C28.9,15.8,31.1,10,33.3,4.1z"></path>		<line class="st0" x1="26.8" y1="21.7" x2="13.6" y2="57"></line>		<path class="st0" d="M34.4,4.5C34.5,4.8,28.2,22,28,22.3l-0.1,0C30.1,16.3,32.2,10.4,34.4,4.5z"></path>		<line class="st0" x1="27.9" y1="22.2" x2="14.8" y2="57.5"></line>		<path class="st0" d="M32.6,3.7c0.1,0.3-6.2,17.5-6.4,17.7l-0.1,0C28.3,15.5,30.5,9.6,32.6,3.7z"></path>		<line class="st0" x1="26.1" y1="21.4" x2="13" y2="56.7"></line>		<path class="st0" d="M26.5,0.8c0.1,0.3-5.3,17.8-5.5,18H21L26.5,0.8z"></path>		<line class="st0" x1="21" y1="18.8" x2="9.6" y2="54.6"></line>		<line class="st1" x1="55.8" y1="89.9" x2="103.1" y2="58.2"></line>	</g></g></svg>